<?xml version="1.0" encoding="utf-8"?>
<!-- Generator: Adobe Illustrator 25.3.1, SVG Export Plug-In . SVG Version: 6.00 Build 0)  -->
<svg version="1.1" id="Layer_1" xmlns="http://www.w3.org/2000/svg" xmlns:xlink="http://www.w3.org/1999/xlink" x="0px" y="0px"
	 viewBox="0 0 1920 1920" style="enable-background:new 0 0 1920 1920;" xml:space="preserve">
<style type="text/css">
	.st0{fill:#EE7323;}
	.st1{fill:#FFFFFF;}
</style>
<g id="Layer_1_1_">
</g>
<g id="Isolation_Mode">
	<g>
		<rect x="0.1" y="-0.4" class="st0" width="1920" height="1920"/>
		<path class="st1" d="M1225.2,1422.4L1225.2,1422.4c-26.1,0-50.4-13.4-64.4-35.4L735.2,715.7v648.4c0,32.2-26.1,58.3-58.3,58.3l0,0
			c-32.2,0-58.3-26.1-58.3-58.3V573.4c0-42.3,34.3-76.5,76.5-76.5l0,0c26.2,0,50.7,13.4,64.7,35.6l425.1,672.1V555.1
			c0-32.2,26.1-58.2,58.2-58.2l0,0c32.2,0,58.2,26.1,58.2,58.2v791.1C1301.5,1388.3,1267.3,1422.4,1225.2,1422.4z"/>
	</g>
</g>
</svg>
